<?xml version="1.0" encoding="utf-8"?>
<!-- Generator: Adobe Illustrator 22.1.0, SVG Export Plug-In . SVG Version: 6.00 Build 0)  -->
<svg version="1.1" id="Layer_1" xmlns="http://www.w3.org/2000/svg" xmlns:xlink="http://www.w3.org/1999/xlink" x="0px" y="0px"
	 viewBox="0 0 134 109" style="enable-background:new 0 0 134 109;" xml:space="preserve">
<style type="text/css">
	.st0{fill:none;stroke:#FF457C;stroke-linecap:round;stroke-linejoin:round;}
</style>
<title>module-three-1</title>
<desc>Created with Sketch.</desc>
<g id="Pages">
	<g id="Welcome" transform="translate(-685.000000, -1140.000000)">
		<g id="module-three-1" transform="translate(686.000000, 1140.000000)">
			<path id="Shape" class="st0" d="M91.8,15.7c1.7,1,2.8,2.9,2.8,4.9v24.1L66,63.1L37.4,44.7V20.6c0-2,1.1-3.9,2.8-4.9L63.1,2
				c1.8-1.1,4.1-1.1,5.9,0L91.8,15.7z"/>
			<path id="Shape_1_" class="st0" d="M66,34.5v28.6"/>
			<path id="Shape_2_" class="st0" d="M94.6,80.2L66,63.1l28.6-18.4l26,16.7c1.6,1.1,2.6,2.9,2.6,4.8v21.1c0,1.9-1,3.7-2.6,4.8
				l-22.9,14.7c-1.9,1.2-4.3,1.2-6.2,0L66,90.4V63.1"/>
			<path id="Shape_3_" class="st0" d="M94.6,80.2v27.5"/>
			<path id="Shape_4_" class="st0" d="M66,63.1v27.3l-25.5,16.4c-1.9,1.2-4.3,1.2-6.2,0L11.5,92.1c-1.6-1-2.6-2.9-2.6-4.8V66.2
				c0-1.9,1-3.7,2.6-4.8l26-16.7L66,63.1L37.4,80.2"/>
			<path id="Shape_5_" class="st0" d="M37.4,80.2L9.5,63.5"/>
			<path id="Shape_6_" class="st0" d="M37.4,80.2v27.5"/>
			<path id="Shape_7_" class="st0" d="M66,34.5L38.2,17.8"/>
			<path id="Shape_8_" class="st0" d="M93.8,17.8L66,34.5"/>
			<path id="Shape_9_" class="st0" d="M122.5,63.5L94.6,80.2"/>
		</g>
	</g>
</g>
</svg>
