<?xml version="1.0" encoding="UTF-8"?>
<svg width="137px" height="109px" viewBox="0 0 137 109" version="1.1" xmlns="http://www.w3.org/2000/svg" xmlns:xlink="http://www.w3.org/1999/xlink">
    <!-- Generator: Sketch 52.3 (67297) - http://www.bohemiancoding.com/sketch -->
    <title>programming-keyboard-type</title>
    <desc>Created with Sketch.</desc>
    <g id="Pages" stroke="none" stroke-width="1" fill="none" fill-rule="evenodd" stroke-linecap="round" stroke-linejoin="round">
        <g id="Welcome" transform="translate(-256.000000, -1148.000000)" stroke="#78FFC1">
            <g id="programming-keyboard-type" transform="translate(257.000000, 1148.000000)">
                <path d="M13.66,48.5 L6.34,48.5 C4.49191163,48.4999514 2.74696124,47.6482395 1.60999293,46.191279 C0.47302462,44.7343186 0.0709145256,42.8346943 0.52,41.042 L9.52,5.042 C10.1887545,2.37241363 12.5879237,0.500072348 15.34,0.5 L119.974,0.5 C122.726076,0.500072348 125.125245,2.37241363 125.794,5.042 L134.794,41.042 C135.243085,42.8346943 134.840975,44.7343186 133.704007,46.191279 C132.567039,47.6482395 130.822088,48.4999514 128.974,48.5 L121.66,48.5" id="Shape"></path>
                <path d="M16.66,36.5 L22.66,36.5" id="Shape"></path>
                <path d="M28.66,24.5 L34.66,24.5" id="Shape"></path>
                <path d="M46.66,24.5 L52.66,24.5" id="Shape"></path>
                <path d="M64.66,24.5 L70.66,24.5" id="Shape"></path>
                <path d="M82.66,24.5 L88.66,24.5" id="Shape"></path>
                <path d="M100.66,24.5 L106.66,24.5" id="Shape"></path>
                <path d="M28.66,12.5 L34.66,12.5" id="Shape"></path>
                <path d="M46.66,12.5 L52.66,12.5" id="Shape"></path>
                <path d="M64.66,12.5 L70.66,12.5" id="Shape"></path>
                <path d="M82.66,12.5 L88.66,12.5" id="Shape"></path>
                <path d="M100.66,12.5 L106.66,12.5" id="Shape"></path>
                <path d="M34.66,36.5 L100.66,36.5" id="Shape"></path>
                <path d="M112.66,36.5 L118.66,36.5" id="Shape"></path>
                <path d="M45.562,63.272 L47.254,57.374 C47.7062982,55.7930998 47.2808388,54.0909895 46.1378882,52.9088376 C44.9949375,51.7266857 43.308137,51.2440892 41.7128882,51.6428376 C40.1176393,52.0415859 38.8562982,53.2610998 38.404,54.842 L36.724,60.752" id="Shape"></path>
                <path d="M31.666,78.446 L36.724,60.752 C37.3268581,58.3412638 35.9096052,55.8867183 33.5203671,55.2036163 C31.1311291,54.5205144 28.6305824,55.8549302 27.868,58.22 L25.348,67.064" id="Shape"></path>
                <path d="M47.116,108.5 C53.578,102.158 60.28,94.58 60.28,94.58 C61.7298342,93.4176579 62.0849321,91.3564693 61.1076272,89.7759841 C60.1303224,88.1954989 58.127652,87.5922539 56.44,88.37 L46,95.288 L54.4,65.798 C54.8722487,64.2104403 54.4549508,62.4915702 53.3073378,61.2972717 C52.1597247,60.1029732 50.4588511,59.6175035 48.8537318,60.0261069 C47.2486125,60.4347103 45.9868866,61.6743471 45.55,63.272 L40.504,80.966" id="Shape"></path>
                <path d="M21.562,80.336 L25.348,67.064 C25.7970828,65.4841716 25.3692241,63.784767 24.2255939,62.6059357 C23.0819638,61.4271043 21.3963069,60.9479386 19.8035939,61.3489357 C18.2108809,61.7499327 16.9530828,62.9701716 16.504,64.55 L8.104,94.034 C6.68955847,98.9401812 7.81475466,104.228603 11.104,108.134" id="Shape"></path>
                <path d="M89.752,63.272 L88.066,57.374 C87.4587497,54.96491 88.8732865,52.5087357 91.2617728,51.8249221 C93.6502591,51.1411085 96.1503196,52.4765501 96.91,54.842 L98.59,60.752" id="Shape"></path>
                <path d="M103.648,78.446 L98.59,60.752 C97.9871419,58.3412638 99.4043948,55.8867183 101.793633,55.2036163 C104.182871,54.5205144 106.683418,55.8549302 107.446,58.22 L109.966,67.064" id="Shape"></path>
                <path d="M88.198,108.5 C81.736,102.158 75.034,94.58 75.034,94.58 C73.5841658,93.4176579 73.2290679,91.3564693 74.2063728,89.7759841 C75.1836776,88.1954989 77.186348,87.5922539 78.874,88.37 L89.326,95.288 L80.926,65.798 C80.4537513,64.2104403 80.8710492,62.4915702 82.0186622,61.2972717 C83.1662753,60.1029732 84.8671489,59.6175035 86.4722682,60.0261069 C88.0773875,60.4347103 89.3391134,61.6743471 89.776,63.272 L94.828,80.966" id="Shape"></path>
                <path d="M113.752,80.336 L109.966,67.064 C109.461597,65.4658116 109.865875,63.7197687 111.021377,62.5059137 C112.176879,61.2920586 113.900903,60.8023187 115.521984,61.2274361 C117.143065,61.6525534 118.404887,62.9253111 118.816,64.55 L127.216,94.034 C128.630442,98.9401812 127.505245,104.228603 124.216,108.134" id="Shape"></path>
            </g>
        </g>
    </g>
</svg>