<?xml version="1.0" encoding="utf-8"?>
<!-- Generator: Adobe Illustrator 24.3.0, SVG Export Plug-In . SVG Version: 6.00 Build 0)  -->
<svg version="1.1" xmlns="http://www.w3.org/2000/svg" xmlns:xlink="http://www.w3.org/1999/xlink" x="0px" y="0px"
	 viewBox="0 0 595.28 841.89" style="enable-background:new 0 0 595.28 841.89;" xml:space="preserve">
<style type="text/css">
	.st0{fill:url(#SVGID_1_);}
	.st1{fill:url(#SVGID_2_);}
	.st2{fill:url(#SVGID_3_);}
	.st3{fill:#F05A8E;}
	.st4{fill:#7C51A1;}
</style>
<g id="ÉåÉCÉÑÅ_x5B__x5F_1">
</g>
<g id="ÉåÉCÉÑÅ_x5B__x5F_2">
	<g>
		<linearGradient id="SVGID_1_" gradientUnits="userSpaceOnUse" x1="269.5612" y1="346.602" x2="365.6057" y2="440.413">
			<stop  offset="0" style="stop-color:#B455A0"/>
			<stop  offset="0.241" style="stop-color:#A054A1"/>
			<stop  offset="0.5366" style="stop-color:#8C53A1"/>
			<stop  offset="0.7992" style="stop-color:#8052A1"/>
			<stop  offset="1" style="stop-color:#7C51A1"/>
		</linearGradient>
		<path class="st0" d="M348.01,468.27c-7.21,0-14.35-3.13-19.24-9.16c-8.62-10.62-7.01-26.22,3.62-34.84
			c7.02-5.7,11.05-14.15,11.05-23.18c0-16.45-13.39-29.84-29.84-29.84c-16.45,0-29.84,13.39-29.84,29.84
			c0,13.68-11.09,24.77-24.77,24.77c-13.68,0-24.77-11.09-24.77-24.77c0-43.77,35.61-79.38,79.38-79.38
			c43.77,0,79.38,35.61,79.38,79.38c0,24.02-10.7,46.49-29.37,61.64C359.02,466.45,353.5,468.27,348.01,468.27z"/>
		<linearGradient id="SVGID_2_" gradientUnits="userSpaceOnUse" x1="358.0165" y1="435.8229" x2="273.3051" y2="519.1896">
			<stop  offset="0" style="stop-color:#FFDF5D"/>
			<stop  offset="0.0962" style="stop-color:#FFD456"/>
			<stop  offset="0.3639" style="stop-color:#FDB846"/>
			<stop  offset="0.6124" style="stop-color:#FAA43B"/>
			<stop  offset="0.8321" style="stop-color:#F89835"/>
			<stop  offset="1" style="stop-color:#F79433"/>
		</linearGradient>
		<path class="st1" d="M256.51,562.68c-6.32,0-12.64-2.4-17.47-7.21c-9.7-9.65-9.74-25.33-0.09-35.03
			c21.56-21.67,79.78-80.6,90.08-92.86c8.8-10.48,24.42-11.84,34.9-3.04c10.48,8.8,11.84,24.42,3.04,34.9
			c-13.51,16.09-84.81,87.82-92.9,95.95C269.23,560.24,262.87,562.68,256.51,562.68z"/>
		<linearGradient id="SVGID_3_" gradientUnits="userSpaceOnUse" x1="250.1856" y1="537.9069" x2="378.3467" y2="537.9069">
			<stop  offset="0" style="stop-color:#F8ABAD"/>
			<stop  offset="0.0962" style="stop-color:#F6A0A8"/>
			<stop  offset="0.3639" style="stop-color:#F3849D"/>
			<stop  offset="0.6124" style="stop-color:#F16F95"/>
			<stop  offset="0.8321" style="stop-color:#F06090"/>
			<stop  offset="1" style="stop-color:#F05A8E"/>
		</linearGradient>
		<path class="st2" d="M371.22,562.68H256.51c-13.68,0-24.77-11.09-24.77-24.77s11.09-24.77,24.77-24.77h114.71
			c13.68,0,24.77,11.09,24.77,24.77S384.9,562.68,371.22,562.68z"/>
		
			<ellipse transform="matrix(0.3827 -0.9239 0.9239 0.3827 -139.2267 378.0524)" class="st3" cx="213.28" cy="293.21" rx="14" ry="14"/>
		<circle class="st3" cx="285.6" cy="290.88" r="4.67"/>
		
			<ellipse transform="matrix(0.4327 -0.9015 0.9015 0.4327 -137.907 413.919)" class="st4" cx="259.94" cy="316.54" rx="4.67" ry="4.67"/>
	</g>
</g>
</svg>
