<?xml version="1.0" encoding="UTF-8"?>
<svg width="215px" height="187px" viewBox="0 0 215 187" version="1.1" xmlns="http://www.w3.org/2000/svg" xmlns:xlink="http://www.w3.org/1999/xlink">
    <!-- Generator: Sketch 52.1 (67048) - http://www.bohemiancoding.com/sketch -->
    <title>website-build</title>
    <desc>Created with Sketch.</desc>
    <g id="Pages" stroke="none" stroke-width="1" fill="none" fill-rule="evenodd" stroke-linecap="round" stroke-linejoin="round">
        <g id="Services" transform="translate(-338.000000, -1073.000000)" stroke="#42E59A">
            <g id="website-build" transform="translate(339.000000, 1074.000000)">
                <path d="M208.369565,92.5 C210.926884,92.5 213,94.570683 213,97.125 L213,166.5 C213,176.717268 204.707535,185 194.478261,185 L18.5217391,185 C8.29246507,185 1.02816306e-15,176.717268 0,166.5 L0,18.5 C-1.02816306e-15,8.28273213 8.29246507,0 18.5217391,0 L115.76087,0 C118.318188,0 120.391304,2.07068303 120.391304,4.625 L120.391304,83.25 C120.391304,88.3586339 124.537537,92.5 129.652174,92.5 L208.369565,92.5 Z" id="Path"></path>
                <path d="M0,47 L120,47" id="Path"></path>
                <path d="M33,20.5 C34.3807119,20.5 35.5,21.6192881 35.5,23 C35.5,24.3807119 34.3807119,25.5 33,25.5 C31.6192881,25.5 30.5,24.3807119 30.5,23 C30.5,21.6192881 31.6192881,20.5 33,20.5" id="Path"></path>
                <path d="M60,20.5 C61.3807119,20.5 62.5,21.6192881 62.5,23 C62.5,24.3807119 61.3807119,25.5 60,25.5 C58.6192881,25.5 57.5,24.3807119 57.5,23 C57.5,21.6192881 58.6192881,20.5 60,20.5" id="Path"></path>
                <path d="M88,20.5 C89.3807119,20.5 90.5,21.6192881 90.5,23 C90.5,24.3807119 89.3807119,25.5 88,25.5 C86.6192881,25.5 85.5,24.3807119 85.5,23 C85.5,21.6192881 86.6192881,20.5 88,20.5" id="Path"></path>
                <path d="M120,55 L213,55" id="Path"></path>
                <path d="M120,19 L213,19" id="Path"></path>
                <path d="M194,0 L194,93" id="Path"></path>
                <path d="M158,0 L158,93" id="Path"></path>
            </g>
        </g>
    </g>
</svg>